<mxfile host="Electron" modified="2024-01-20T23:09:19.237Z" agent="Mozilla/5.0 (Windows NT 10.0; Win64; x64) AppleWebKit/537.36 (KHTML, like Gecko) draw.io/22.1.11 Chrome/114.0.5735.289 Electron/25.9.8 Safari/537.36" etag="7zjdBGYZbUFBRrtOBVG6" version="22.1.11" type="device">
  <diagram name="第 1 页" id="Oy3WBP8XnrUnzH6m29CH">
    <mxGraphModel dx="794" dy="519" grid="1" gridSize="10" guides="1" tooltips="1" connect="1" arrows="1" fold="1" page="1" pageScale="1" pageWidth="827" pageHeight="1169" math="0" shadow="0">
      <root>
        <mxCell id="0" />
        <mxCell id="1" parent="0" />
        <mxCell id="JS9XGS7SFkaLXiE1Eztz-1" value="" style="endArrow=classic;html=1;rounded=0;exitX=0.5;exitY=0;exitDx=0;exitDy=0;entryX=0.5;entryY=1;entryDx=0;entryDy=0;" edge="1" parent="1" source="JS9XGS7SFkaLXiE1Eztz-2" target="JS9XGS7SFkaLXiE1Eztz-3">
          <mxGeometry width="50" height="50" relative="1" as="geometry">
            <mxPoint x="380" y="300" as="sourcePoint" />
            <mxPoint x="380" y="140" as="targetPoint" />
          </mxGeometry>
        </mxCell>
        <mxCell id="JS9XGS7SFkaLXiE1Eztz-2" value="低" style="text;html=1;strokeColor=none;fillColor=none;align=center;verticalAlign=middle;whiteSpace=wrap;rounded=0;" vertex="1" parent="1">
          <mxGeometry x="350" y="300" width="60" height="30" as="geometry" />
        </mxCell>
        <mxCell id="JS9XGS7SFkaLXiE1Eztz-3" value="高" style="text;html=1;strokeColor=none;fillColor=none;align=center;verticalAlign=middle;whiteSpace=wrap;rounded=0;" vertex="1" parent="1">
          <mxGeometry x="350" y="120" width="60" height="30" as="geometry" />
        </mxCell>
        <mxCell id="JS9XGS7SFkaLXiE1Eztz-5" value="" style="endArrow=classic;html=1;rounded=0;" edge="1" parent="1">
          <mxGeometry width="50" height="50" relative="1" as="geometry">
            <mxPoint x="429.5" y="300" as="sourcePoint" />
            <mxPoint x="429.5" y="270" as="targetPoint" />
          </mxGeometry>
        </mxCell>
        <mxCell id="JS9XGS7SFkaLXiE1Eztz-6" value="int" style="text;html=1;strokeColor=none;fillColor=none;align=center;verticalAlign=middle;whiteSpace=wrap;rounded=0;" vertex="1" parent="1">
          <mxGeometry x="400" y="300" width="60" height="30" as="geometry" />
        </mxCell>
        <mxCell id="JS9XGS7SFkaLXiE1Eztz-7" value="" style="endArrow=classic;html=1;rounded=0;" edge="1" parent="1">
          <mxGeometry width="50" height="50" relative="1" as="geometry">
            <mxPoint x="490.5" y="314.5" as="sourcePoint" />
            <mxPoint x="450" y="314.5" as="targetPoint" />
          </mxGeometry>
        </mxCell>
        <mxCell id="JS9XGS7SFkaLXiE1Eztz-8" value="char, short" style="text;html=1;strokeColor=none;fillColor=none;align=center;verticalAlign=middle;whiteSpace=wrap;rounded=0;" vertex="1" parent="1">
          <mxGeometry x="500" y="300" width="60" height="30" as="geometry" />
        </mxCell>
        <mxCell id="JS9XGS7SFkaLXiE1Eztz-12" value="" style="endArrow=classic;html=1;rounded=0;" edge="1" parent="1">
          <mxGeometry width="50" height="50" relative="1" as="geometry">
            <mxPoint x="429.5" y="240" as="sourcePoint" />
            <mxPoint x="429.5" y="210" as="targetPoint" />
          </mxGeometry>
        </mxCell>
        <mxCell id="JS9XGS7SFkaLXiE1Eztz-13" value="unsigned" style="text;html=1;strokeColor=none;fillColor=none;align=center;verticalAlign=middle;whiteSpace=wrap;rounded=0;" vertex="1" parent="1">
          <mxGeometry x="400" y="240" width="60" height="30" as="geometry" />
        </mxCell>
        <mxCell id="JS9XGS7SFkaLXiE1Eztz-14" value="" style="endArrow=classic;html=1;rounded=0;entryX=1;entryY=0.5;entryDx=0;entryDy=0;" edge="1" parent="1" target="JS9XGS7SFkaLXiE1Eztz-13">
          <mxGeometry width="50" height="50" relative="1" as="geometry">
            <mxPoint x="490.5" y="254.5" as="sourcePoint" />
            <mxPoint x="450" y="254.5" as="targetPoint" />
          </mxGeometry>
        </mxCell>
        <mxCell id="JS9XGS7SFkaLXiE1Eztz-15" value="unsigned short&amp;nbsp;" style="text;html=1;strokeColor=none;fillColor=none;align=center;verticalAlign=middle;whiteSpace=wrap;rounded=0;" vertex="1" parent="1">
          <mxGeometry x="490" y="240" width="110" height="30" as="geometry" />
        </mxCell>
        <mxCell id="JS9XGS7SFkaLXiE1Eztz-16" value="" style="endArrow=classic;html=1;rounded=0;" edge="1" parent="1">
          <mxGeometry width="50" height="50" relative="1" as="geometry">
            <mxPoint x="429.5" y="180" as="sourcePoint" />
            <mxPoint x="429.5" y="150" as="targetPoint" />
          </mxGeometry>
        </mxCell>
        <mxCell id="JS9XGS7SFkaLXiE1Eztz-17" value="unsigned long" style="text;html=1;strokeColor=none;fillColor=none;align=center;verticalAlign=middle;whiteSpace=wrap;rounded=0;" vertex="1" parent="1">
          <mxGeometry x="400" y="180" width="60" height="30" as="geometry" />
        </mxCell>
        <mxCell id="JS9XGS7SFkaLXiE1Eztz-18" value="" style="endArrow=classic;html=1;rounded=0;entryX=1;entryY=0.5;entryDx=0;entryDy=0;" edge="1" parent="1" target="JS9XGS7SFkaLXiE1Eztz-17">
          <mxGeometry width="50" height="50" relative="1" as="geometry">
            <mxPoint x="490.5" y="194.5" as="sourcePoint" />
            <mxPoint x="450" y="194.5" as="targetPoint" />
          </mxGeometry>
        </mxCell>
        <mxCell id="JS9XGS7SFkaLXiE1Eztz-19" value="long" style="text;html=1;strokeColor=none;fillColor=none;align=center;verticalAlign=middle;whiteSpace=wrap;rounded=0;" vertex="1" parent="1">
          <mxGeometry x="500" y="180" width="60" height="30" as="geometry" />
        </mxCell>
        <mxCell id="JS9XGS7SFkaLXiE1Eztz-21" value="double" style="text;html=1;strokeColor=none;fillColor=none;align=center;verticalAlign=middle;whiteSpace=wrap;rounded=0;" vertex="1" parent="1">
          <mxGeometry x="400" y="120" width="60" height="30" as="geometry" />
        </mxCell>
        <mxCell id="JS9XGS7SFkaLXiE1Eztz-22" value="" style="endArrow=classic;html=1;rounded=0;" edge="1" parent="1">
          <mxGeometry width="50" height="50" relative="1" as="geometry">
            <mxPoint x="490.5" y="134.5" as="sourcePoint" />
            <mxPoint x="460" y="135" as="targetPoint" />
          </mxGeometry>
        </mxCell>
        <mxCell id="JS9XGS7SFkaLXiE1Eztz-23" value="float" style="text;html=1;strokeColor=none;fillColor=none;align=center;verticalAlign=middle;whiteSpace=wrap;rounded=0;" vertex="1" parent="1">
          <mxGeometry x="500" y="120" width="60" height="30" as="geometry" />
        </mxCell>
      </root>
    </mxGraphModel>
  </diagram>
</mxfile>
